<?xml version="1.0" encoding="UTF-8" standalone="no"?>
<svg
   xmlns:osb="http://www.openswatchbook.org/uri/2009/osb"
   xmlns:dc="http://purl.org/dc/elements/1.1/"
   xmlns:cc="http://creativecommons.org/ns#"
   xmlns:rdf="http://www.w3.org/1999/02/22-rdf-syntax-ns#"
   xmlns:svg="http://www.w3.org/2000/svg"
   xmlns="http://www.w3.org/2000/svg"
   xmlns:xlink="http://www.w3.org/1999/xlink"
   version="1.1"
   width="512px"
   viewBox="0 0 64 64"
   height="512px"
   enable-background="new 0 0 64 64"
   id="_x33_0">
  <metadata
     id="metadata194">
    <rdf:RDF>
      <cc:Work
         rdf:about="">
        <dc:format>image/svg+xml</dc:format>
        <dc:type
           rdf:resource="http://purl.org/dc/dcmitype/StillImage" />
        <dc:title></dc:title>
      </cc:Work>
    </rdf:RDF>
  </metadata>
  <defs
     id="defs192">
    <linearGradient
       id="linearGradient1133">
      <stop
         id="stop1129"
         offset="0"
         style="stop-color:#000000;stop-opacity:1;" />
      <stop
         id="stop1131"
         offset="1"
         style="stop-color:#000000;stop-opacity:0;" />
    </linearGradient>
    <linearGradient
       osb:paint="solid"
       id="linearGradient1059">
      <stop
         id="stop1057"
         offset="0"
         style="stop-color:#00f248;stop-opacity:0.99823534;" />
    </linearGradient>
    <rect
       id="rect198"
       height="5.228864"
       width="43.148369"
       y="5.4450335"
       x="18.737052" />
    <linearGradient
       y2="14.722538"
       x2="50.449589"
       y1="14.722538"
       x1="21.410526"
       gradientUnits="userSpaceOnUse"
       id="linearGradient1127"
       xlink:href="#linearGradient1059" />
    <linearGradient
       gradientUnits="userSpaceOnUse"
       y2="14.722538"
       x2="50.512089"
       y1="14.722538"
       x1="21.348026"
       id="linearGradient1139"
       xlink:href="#linearGradient1133" />
  </defs>
  <g
     transform="matrix(0.22722482,0,0,0.22749554,6.6229572,4.3097822)"
     id="g187">
    <g
       id="g185">
      <path
         id="path153"
         fill="#69e781"
         data-old_color="#000000"
         class="active-path"
         data-original="#000000"
         d="m 55,61 v -8 h -2 v 8 h -2 v -8 h -2 v 8 h -2 v -8 h -2 v 8 h -2 v -8 h -2 v 8 h -3 c 0.552,0 1,-0.449 1,-1 v -5 h -4 v 6 h -2 v -7 c 0,-1.654 -1.346,-3 -3,-3 h -2 c -1.654,0 -3,1.346 -3,3 v 7 h -2 v -7 c 0,-1.654 -1.346,-3 -3,-3 h -2 c -1.654,0 -3,1.346 -3,3 v 7 h -2 v -6 h -3 c -0.552,0 -1,0.449 -1,1 v 4 c 0,0.551 0.448,1 1,1 H 1 v 2 h 62 v -2 z" />
      <path
         id="path155"
         fill="#69e781"
         data-old_color="#000000"
         class="active-path"
         data-original="#000000"
         d="M 17.477,9.719 C 17.845,9.283 18.387,9 19,9 h 4.132 L 22.168,7.555 23.832,6.446 25.535,9 h 1.596 L 26.167,7.555 27.831,6.446 29.603,9.104 C 30.045,9.245 30.422,9.529 30.672,9.91 30.88,9.345 31,8.751 31,8.141 31,5.306 28.694,3 25.859,3 H 22.236 C 21.238,3 20.34,3.555 19.894,4.447 l -0.186,0.37 -0.533,0.178 C 17.874,5.43 17,6.642 17,8.013 c 0,0.491 0.116,0.983 0.336,1.423 z" />
      <path
         id="path157"
         fill="#69e781"
         data-old_color="#000000"
         class="active-path"
         data-original="#000000"
         d="m 19.222,22.173 0.57,-1.71 C 18.145,19.644 17,17.961 17,16 V 13.236 L 16.882,13 H 12 c -0.552,0 -1,0.449 -1,1 v 13.479 c 2.105,-2.483 4.928,-4.368 8.222,-5.306 z" />
      <path
         id="path159"
         fill="#69e781"
         data-old_color="#000000"
         class="active-path"
         data-original="#000000"
         d="m 25,11 h 4 v 2 h -4 z" />
      <path
         id="path161"
         fill="#69e781"
         data-old_color="#000000"
         class="active-path"
         data-original="#000000"
         d="m 10,53 h 3 v -8 h -3 c -0.552,0 -1,0.449 -1,1 v 6 c 0,0.551 0.448,1 1,1 z" />
      <path
         id="path163"
         fill="#69e781"
         data-old_color="#000000"
         class="active-path"
         data-original="#000000"
         d="m 22,21 c -0.093,0 -0.179,-0.022 -0.27,-0.027 l -0.495,1.484 c 1.756,0.692 3.773,0.692 5.529,0 L 26.269,20.973 C 26.179,20.978 26.093,21 26,21 Z" />
      <path
         id="path165"
         fill="#69e781"
         data-old_color="#000000"
         class="active-path"
         data-original="#000000"
         d="m 43.4,44.539 -0.237,0.42 -0.477,0.076 C 41.709,45.19 41,46.017 41,47 h 14 c 0,-0.983 -0.709,-1.81 -1.687,-1.965 L 52.835,44.959 52.6,44.538 C 52.332,44.063 51.939,43.669 51.461,43.4 L 51.04,43.162 50.965,42.685 C 50.81,41.708 49.983,41 49,41 c -0.843,0 -1.598,0.542 -1.878,1.347 L 46.876,43.054 45.958,43 c -1.026,0 -2.022,0.589 -2.558,1.539 z" />
      <path
         id="path167"
         fill="#69e781"
         data-old_color="#000000"
         class="active-path"
         data-original="#000000"
         d="m 19,11 h 4 v 2 h -4 z" />
      <path
         id="path169"
         fill="#69e781"
         data-old_color="#000000"
         class="active-path"
         data-original="#000000"
         d="m 31,16 c 0,1.961 -1.145,3.644 -2.792,4.463 l 0.569,1.705 c 2.93,0.79 5.695,2.021 8.223,3.61 V 14 c 0,-0.551 -0.448,-1 -1,-1 H 31.202 L 31,13.303 Z" />
      <path
         id="path171"
         fill="#69e781"
         data-old_color="#000000"
         class="active-path"
         data-original="#000000"
         d="M 29,16 V 15 H 25 C 24.634,15 24.295,14.894 24,14.722 23.705,14.894 23.366,15 23,15 h -4 v 1 c 0,1.654 1.346,3 3,3 h 4 c 1.654,0 3,-1.346 3,-3 z" />
      <path
         id="path173"
         fill="#69e781"
         data-old_color="#000000"
         class="active-path"
         data-original="#000000"
         d="m 39,49 h 18 v 2 H 39 Z" />
      <path
         id="path175"
         fill="#69e781"
         data-old_color="#000000"
         class="active-path"
         data-original="#000000"
         d="m 39,47 v -1 c 0,-0.551 -0.448,-1 -1,-1 h -3 v 8 h 4 c -1.103,0 -2,-0.897 -2,-2 v -2 c 0,-1.103 0.897,-2 2,-2 z" />
      <path
         id="path177"
         fill="#69e781"
         data-old_color="#000000"
         class="active-path"
         data-original="#000000"
         d="m 13,43 h 4 v -4 h -6 v -2 h 2 v -2 h 2 v 2 h 4 v -2 h -2 v -2 h 6 v -4 c 0,-1.103 0.897,-2 2,-2 h 4 v 2 h -4 v 4 h 6 v 2 h -2 v 9 c 0,1.654 -1.346,3 -3,3 h -4 c -1.302,0 -2.402,-0.839 -2.816,-2 H 15 v 5.026 C 15.838,49.391 16.87,49 18,49 h 2 c 1.641,0 3.088,0.806 4,2.031 C 24.912,49.806 26.359,49 28,49 h 2 c 1.13,0 2.162,0.391 3,1.026 V 31 h 2 v 1.506 c 3.359,2.5 6.189,5.698 8.262,9.333 0.676,-0.45 1.454,-0.739 2.274,-0.817 0.291,-0.511 0.691,-0.939 1.158,-1.273 C 43.179,32.035 36.304,26.225 28.089,24.063 26.817,24.672 25.409,25 24,25 22.593,25 21.188,24.673 19.918,24.066 13.475,25.832 9,31.66 9,38.369 V 39 c 0,2.206 1.794,4 4,4 z" />
      <path
         id="path179"
         fill="#69e781"
         data-old_color="#000000"
         class="active-path"
         data-original="#000000"
         d="M 21.667,44.933 C 21.772,44.97 21.882,45 22,45 h 4 c 0.552,0 1,-0.449 1,-1 v -9 h -6 v 2 c 2.206,0 4,1.794 4,4 0,1.977 -1.445,3.613 -3.333,3.933 z" />
      <path
         id="path181"
         fill="#69e781"
         data-old_color="#000000"
         class="active-path"
         data-original="#000000"
         d="M 35,35.046 V 43 h 2 v -6.123 c -0.637,-0.642 -1.305,-1.252 -2,-1.831 z" />
      <path
         id="path183"
         fill="#69e781"
         data-old_color="#000000"
         class="active-path"
         data-original="#000000"
         d="m 19,39 v 4 h 2 c 1.103,0 2,-0.897 2,-2 0,-1.103 -0.897,-2 -2,-2 z" />
    </g>
  </g>
  <text
     style="font-style:normal;font-weight:normal;font-size:5px;line-height:1.25;font-family:sans-serif;white-space:pre;shape-inside:url(#rect198);fill:#000000;fill-opacity:1;stroke:none;"
     id="text196"
     xml:space="preserve"><tspan
       style="visibility:hidden"
       x="18.736328"
       y="15.097656"><tspan
         dx="0 2.8808594 1.3867188">Fli</tspan></tspan></text>
  <text
     id="text208"
     y="19.29285"
     x="21.035526"
     style="font-style:normal;font-variant:normal;font-weight:normal;font-stretch:normal;font-size:12px;line-height:1.25;font-family:'AR PL UKai TW MBE';-inkscape-font-specification:'AR PL UKai TW MBE, Normal';font-variant-ligatures:normal;font-variant-caps:normal;font-variant-numeric:normal;font-variant-east-asian:normal;fill:url(#linearGradient1127);fill-opacity:1;stroke:url(#linearGradient1139);stroke-width:0.125"
     xml:space="preserve"><tspan
       style="font-style:normal;font-variant:normal;font-weight:normal;font-stretch:normal;font-size:12px;font-family:'AR PL UKai TW MBE';-inkscape-font-specification:'AR PL UKai TW MBE, Normal';font-variant-ligatures:normal;font-variant-caps:normal;font-variant-numeric:normal;font-variant-east-asian:normal;fill:url(#linearGradient1127);fill-opacity:1;fill-rule:evenodd;stroke-width:0.125;stroke:url(#linearGradient1139)"
       y="19.29285"
       x="21.035526"
       id="tspan206">Flixr</tspan></text>
</svg>
