<?xml version="1.0"?>
<svg xmlns="http://www.w3.org/2000/svg" id="_x33_0" enable-background="new 0 0 64 64" height="512px" viewBox="0 0 64 64" width="512px"><g><g><path d="m55 61v-8h-2v8h-2v-8h-2v8h-2v-8h-2v8h-2v-8h-2v8h-3c.552 0 1-.449 1-1v-5h-4v6h-2v-7c0-1.654-1.346-3-3-3h-2c-1.654 0-3 1.346-3 3v7h-2v-7c0-1.654-1.346-3-3-3h-2c-1.654 0-3 1.346-3 3v7h-2v-6h-3c-.552 0-1 .449-1 1v4c0 .551.448 1 1 1h-9v2h62v-2z" data-original="#000000" class="active-path" data-old_color="#000000" fill="#69E781"/><path d="m17.477 9.719c.368-.436.91-.719 1.523-.719h4.132l-.964-1.445 1.664-1.109 1.703 2.554h1.596l-.964-1.445 1.664-1.109 1.772 2.658c.442.141.819.425 1.069.806.208-.565.328-1.159.328-1.769 0-2.835-2.306-5.141-5.141-5.141h-3.623c-.998 0-1.896.555-2.342 1.447l-.186.37-.533.178c-1.301.435-2.175 1.647-2.175 3.018 0 .491.116.983.336 1.423z" data-original="#000000" class="active-path" data-old_color="#000000" fill="#69E781"/><path d="m19.222 22.173.57-1.71c-1.647-.819-2.792-2.502-2.792-4.463v-2.764l-.118-.236h-4.882c-.552 0-1 .449-1 1v13.479c2.105-2.483 4.928-4.368 8.222-5.306z" data-original="#000000" class="active-path" data-old_color="#000000" fill="#69E781"/><path d="m25 11h4v2h-4z" data-original="#000000" class="active-path" data-old_color="#000000" fill="#69E781"/><path d="m10 53h3v-8h-3c-.552 0-1 .449-1 1v6c0 .551.448 1 1 1z" data-original="#000000" class="active-path" data-old_color="#000000" fill="#69E781"/><path d="m22 21c-.093 0-.179-.022-.27-.027l-.495 1.484c1.756.692 3.773.692 5.529 0l-.495-1.484c-.09.005-.176.027-.269.027z" data-original="#000000" class="active-path" data-old_color="#000000" fill="#69E781"/><path d="m43.4 44.539-.237.42-.477.076c-.977.155-1.686.982-1.686 1.965h14c0-.983-.709-1.81-1.687-1.965l-.478-.076-.235-.421c-.268-.475-.661-.869-1.139-1.138l-.421-.238-.075-.477c-.155-.977-.982-1.685-1.965-1.685-.843 0-1.598.542-1.878 1.347l-.246.707-.918-.054c-1.026 0-2.022.589-2.558 1.539z" data-original="#000000" class="active-path" data-old_color="#000000" fill="#69E781"/><path d="m19 11h4v2h-4z" data-original="#000000" class="active-path" data-old_color="#000000" fill="#69E781"/><path d="m31 16c0 1.961-1.145 3.644-2.792 4.463l.569 1.705c2.93.79 5.695 2.021 8.223 3.61v-11.778c0-.551-.448-1-1-1h-4.798l-.202.303z" data-original="#000000" class="active-path" data-old_color="#000000" fill="#69E781"/><path d="m29 16v-1h-4c-.366 0-.705-.106-1-.278-.295.172-.634.278-1 .278h-4v1c0 1.654 1.346 3 3 3h4c1.654 0 3-1.346 3-3z" data-original="#000000" class="active-path" data-old_color="#000000" fill="#69E781"/><path d="m39 49h18v2h-18z" data-original="#000000" class="active-path" data-old_color="#000000" fill="#69E781"/><path d="m39 47v-1c0-.551-.448-1-1-1h-3v8h4c-1.103 0-2-.897-2-2v-2c0-1.103.897-2 2-2z" data-original="#000000" class="active-path" data-old_color="#000000" fill="#69E781"/><path d="m13 43h4v-4h-6v-2h2v-2h2v2h4v-2h-2v-2h6v-4c0-1.103.897-2 2-2h4v2h-4v4h6v2h-2v9c0 1.654-1.346 3-3 3h-4c-1.302 0-2.402-.839-2.816-2h-4.184v5.026c.838-.635 1.87-1.026 3-1.026h2c1.641 0 3.088.806 4 2.031.912-1.225 2.359-2.031 4-2.031h2c1.13 0 2.162.391 3 1.026v-19.026h2v1.506c3.359 2.5 6.189 5.698 8.262 9.333.676-.45 1.454-.739 2.274-.817.291-.511.691-.939 1.158-1.273-3.515-7.714-10.39-13.524-18.605-15.686-1.272.609-2.68.937-4.089.937-1.407 0-2.812-.327-4.082-.934-6.443 1.766-10.918 7.594-10.918 14.303v.631c0 2.206 1.794 4 4 4z" data-original="#000000" class="active-path" data-old_color="#000000" fill="#69E781"/><path d="m21.667 44.933c.105.037.215.067.333.067h4c.552 0 1-.449 1-1v-9h-6v2c2.206 0 4 1.794 4 4 0 1.977-1.445 3.613-3.333 3.933z" data-original="#000000" class="active-path" data-old_color="#000000" fill="#69E781"/><path d="m35 35.046v7.954h2v-6.123c-.637-.642-1.305-1.252-2-1.831z" data-original="#000000" class="active-path" data-old_color="#000000" fill="#69E781"/><path d="m19 39v4h2c1.103 0 2-.897 2-2s-.897-2-2-2z" data-original="#000000" class="active-path" data-old_color="#000000" fill="#69E781"/></g></g> </svg>
